# Blender v3.0.1 OBJ File: 'fem-base model(1).blend'
# www.blender.org
mtllib fem-base model.mtl
o body_Cube
v 0.863410 1.750660 -0.291110
v 0.897453 0.004197 -0.257380
v 0.935571 1.592068 0.374365
v 0.897453 0.004197 0.434054
v 0.000000 1.762917 -0.612193
v 0.000000 -0.081969 -0.442353
v 0.000000 1.079032 1.076062
v 0.000000 -0.004918 0.736871
v 1.021187 -0.490402 -0.331331
v 1.078146 -0.792134 0.474043
v 0.000000 -1.060175 -1.055459
v 0.000000 -1.341557 0.543654
v 1.158415 -1.353745 0.555861
v 1.173900 -1.353745 -0.427601
v 0.000000 -1.672140 -0.941031
v 0.000000 -1.391686 0.525491
v 0.863203 -3.713252 0.462384
v 0.699269 -3.953864 -0.330876
v 0.257503 -3.953350 -0.301271
v 0.183396 -3.708853 0.540416
v 0.207592 -5.750433 0.308033
v 0.600435 -5.748200 0.230850
v 0.710666 -5.744283 -0.500405
v 0.180398 -5.742601 -0.486340
v 1.515003 1.835390 0.320851
v 0.000000 2.141767 -0.434335
v 1.108600 -0.358165 -0.179832
v 1.147244 -0.482439 0.142103
v 1.746937 -0.296752 -0.294855
v 1.815612 -0.449224 0.169867
v 1.331707 -2.149236 -0.178448
v 1.303473 -2.141460 0.162188
v 1.739084 -2.135545 -0.289842
v 1.806306 -2.136437 0.193057
v 0.110945 -5.913917 0.877212
v 0.000000 1.913747 0.570102
v 1.442843 1.993982 -0.291110
v 0.807495 -5.907086 0.634865
v 1.515003 1.835390 0.329527
v 0.722449 -5.885612 -0.563276
v 1.515003 1.835390 0.321234
v 0.000000 2.140980 -0.436721
v 0.000000 2.073523 0.378880
v 0.813697 2.135768 -0.291785
v 0.000000 2.179113 -0.406918
v 0.729807 1.967647 0.371828
v 0.000000 2.073523 0.380773
v 0.000000 2.222456 -0.363638
v 0.562765 2.044669 0.193584
v 0.000000 2.087770 0.373166
v 0.615999 2.121521 -0.221245
v 0.000000 2.227134 -0.228674
v 0.323056 2.191361 0.156316
v 0.000000 2.234579 0.300314
v 0.318488 2.196239 -0.222624
v 0.000000 2.233255 -0.317025
v 0.330895 2.640843 0.158584
v 0.290475 2.643801 -0.141085
v 0.000000 2.613333 -0.318225
v 0.200036 -5.890060 -0.540390
v 0.714248 -6.141716 -0.550373
v 0.191835 -6.146164 -0.527487
v 0.125196 -6.174135 0.837753
v 0.843610 -6.162796 0.618167
v 0.202029 -5.928442 1.113350
v 0.759786 -5.921401 0.897400
v 0.218151 -6.188635 1.074447
v 0.796681 -6.177096 0.882261
v 0.489519 2.638923 0.537461
v 0.000000 2.515384 0.677991
v 0.000000 2.748386 -0.641223
v 0.631490 3.873607 0.541540
v 0.000000 4.060352 0.729744
v 0.626922 3.878485 -0.137006
v 0.000000 4.036419 -0.651706
v 0.000000 2.515384 0.299114
v 1.349030 -2.863165 -0.247516
v 1.347448 -2.863117 0.145512
v 1.719450 -2.526954 -0.287255
v 1.720371 -2.525784 0.185037
v 0.000000 2.515384 0.677991
v 0.000000 4.060352 0.729744
v 0.000000 2.515384 0.677991
v -0.863410 1.750660 -0.291110
v -0.897453 0.004197 -0.257380
v -0.935571 1.592068 0.374365
v -0.897453 0.004197 0.434054
v -1.021187 -0.490402 -0.331331
v -1.078146 -0.792134 0.474043
v -1.158415 -1.353745 0.555861
v -1.173900 -1.353745 -0.427601
v -0.863203 -3.713252 0.462384
v -0.699269 -3.953864 -0.330876
v -0.257503 -3.953350 -0.301271
v -0.183396 -3.708853 0.540416
v -0.207592 -5.750433 0.308033
v -0.600435 -5.748200 0.230850
v -0.710666 -5.744283 -0.500405
v -0.180398 -5.742601 -0.486340
v -1.515003 1.835390 0.320851
v -1.108600 -0.358165 -0.179832
v -1.147244 -0.482439 0.142103
v -1.746937 -0.296752 -0.294855
v -1.815612 -0.449224 0.169867
v -1.331707 -2.149236 -0.178448
v -1.303473 -2.141460 0.162188
v -1.739084 -2.135545 -0.289842
v -1.806306 -2.136437 0.193057
v -0.110945 -5.913917 0.877212
v -1.442843 1.993982 -0.291110
v -0.807495 -5.907086 0.634865
v -1.515003 1.835390 0.329527
v -0.722449 -5.885612 -0.563276
v -1.515003 1.835390 0.321234
v -0.813697 2.135768 -0.291785
v -0.729807 1.967647 0.371828
v -0.562765 2.044669 0.193584
v -0.615999 2.121521 -0.221245
v -0.323056 2.191361 0.156316
v -0.318488 2.196239 -0.222624
v -0.330895 2.640843 0.158584
v -0.290475 2.643801 -0.141085
v -0.200036 -5.890060 -0.540390
v -0.714248 -6.141716 -0.550373
v -0.191835 -6.146164 -0.527487
v -0.125196 -6.174135 0.837753
v -0.843610 -6.162796 0.618167
v -0.202029 -5.928442 1.113350
v -0.759786 -5.921401 0.897400
v -0.218151 -6.188635 1.074447
v -0.796681 -6.177096 0.882261
v -0.489519 2.638923 0.537461
v -0.631490 3.873607 0.541540
v -0.626922 3.878485 -0.137006
v -1.349030 -2.863165 -0.247516
v -1.347448 -2.863117 0.145512
v -1.719450 -2.526954 -0.287255
v -1.720371 -2.525784 0.185037
vt 0.626899 0.500000
vt 0.626899 0.750000
vt 0.626899 0.750000
vt 0.626899 0.500000
vt 0.376899 0.750000
vt 0.626899 0.750000
vt 0.626899 0.883211
vt 0.376899 0.883211
vt 0.376899 0.750000
vt 0.376899 0.883211
vt 0.376899 0.883211
vt 0.376899 0.750000
vt 0.376899 0.366789
vt 0.376899 0.500000
vt 0.376899 0.500000
vt 0.376899 0.366789
vt 0.626899 0.500000
vt 0.626899 0.308395
vt 0.376899 0.366789
vt 0.376899 0.500000
vt 0.376899 0.500000
vt 0.376899 0.366789
vt 0.000000 0.000000
vt 0.000000 0.000000
vt 0.000000 0.000000
vt 0.000000 0.000000
vt 0.376899 0.750000
vt 0.376899 0.883211
vt 0.376899 0.883211
vt 0.376899 0.750000
vt 0.000000 0.000000
vt 0.000000 0.000000
vt 0.376899 0.500000
vt 0.376899 0.750000
vt 0.376899 0.500000
vt 0.376899 0.366789
vt 0.000000 0.000000
vt 0.000000 0.000000
vt 0.626899 0.308395
vt 0.626899 0.883211
vt 0.626899 0.750000
vt 0.626899 0.750000
vt 0.626899 0.750000
vt 0.626899 0.500000
vt 0.626899 0.500000
vt 0.626899 0.750000
vt 0.626899 0.500000
vt 0.626899 0.500000
vt 0.376899 0.366789
vt 0.000000 0.000000
vt 0.000000 0.000000
vt 0.000000 0.000000
vt 0.000000 0.000000
vt 0.376899 0.883211
vt 0.758211 0.750000
vt 0.626899 0.750000
vt 0.693802 0.724489
vt 0.758211 0.750000
vt 0.626899 0.750000
vt 0.697860 0.529835
vt 0.758211 0.500000
vt 0.758211 0.500000
vt 0.758211 0.500000
vt 0.757605 0.547571
vt 0.712099 0.585425
vt 0.758211 0.750000
vt 0.757658 0.701432
vt 0.708124 0.667968
vt 0.708124 0.667968
vt 0.757658 0.701432
vt 0.708124 0.667968
vt 0.757658 0.701432
vt 0.757605 0.547571
vt 0.712099 0.585425
vt 0.712099 0.585425
vt 0.757605 0.547571
vt 0.757605 0.547571
vt 0.241789 0.500000
vt 0.376899 0.500000
vt 0.376899 0.750000
vt 0.241789 0.750000
vt 0.000000 0.000000
vt 0.000000 0.000000
vt 0.376899 0.366789
vt 0.376899 0.750000
vt 0.376899 0.883211
vt 0.376899 0.883211
vt 0.376899 0.750000
vt 0.241789 0.750000
vt 0.757605 0.547571
vt 0.712099 0.585425
vt 0.708124 0.667968
vt 0.757658 0.701432
vt 0.757658 0.701432
vt 0.708124 0.667968
vt 0.626899 0.750000
vt 0.626899 0.500000
vt 0.757658 0.701432
vt 0.757658 0.701432
vt 0.626899 0.500000
vt 0.626899 0.500000
vt 0.626899 0.750000
vt 0.626899 0.750000
vt 0.376899 0.750000
vt 0.626899 0.750000
vt 0.376899 0.750000
vt 0.376899 0.750000
vt 0.376899 0.500000
vt 0.376899 0.500000
vt 0.626899 0.500000
vt 0.376899 0.366789
vt 0.376899 0.500000
vt 0.376899 0.500000
vt 0.376899 0.750000
vt 0.376899 0.750000
vt 0.376899 0.883211
vt 0.376899 0.883211
vt 0.000000 0.000000
vt 0.000000 0.000000
vt 0.376899 0.500000
vt 0.376899 0.500000
vt 0.376899 0.750000
vt 0.376899 0.366789
vt 0.000000 0.000000
vt 0.000000 0.000000
vt 0.626899 0.750000
vt 0.626899 0.750000
vt 0.626899 0.750000
vt 0.626899 0.500000
vt 0.626899 0.500000
vt 0.626899 0.500000
vt 0.626899 0.750000
vt 0.626899 0.500000
vt 0.376899 0.366789
vt 0.000000 0.000000
vt 0.000000 0.000000
vt 0.000000 0.000000
vt 0.000000 0.000000
vt 0.376899 0.883211
vt 0.693802 0.724489
vt 0.626899 0.750000
vt 0.626899 0.750000
vt 0.697860 0.529835
vt 0.712099 0.585425
vt 0.708124 0.667968
vt 0.708124 0.667968
vt 0.708124 0.667968
vt 0.712099 0.585425
vt 0.712099 0.585425
vt 0.241789 0.500000
vt 0.241789 0.750000
vt 0.376899 0.750000
vt 0.376899 0.500000
vt 0.000000 0.000000
vt 0.000000 0.000000
vt 0.376899 0.366789
vt 0.376899 0.750000
vt 0.376899 0.750000
vt 0.376899 0.883211
vt 0.376899 0.883211
vt 0.241789 0.750000
vt 0.712099 0.585425
vt 0.708124 0.667968
vt 0.708124 0.667968
vt 0.626899 0.750000
vt 0.626899 0.500000
vn 0.9869 0.1335 -0.0905
vn 0.4995 -0.0972 0.8609
vn -0.0094 0.1023 0.9947
vn 0.2644 0.4259 -0.8653
vn 0.9986 -0.0027 -0.0534
vn 0.2778 -0.0517 -0.9592
vn 0.1995 -0.0534 0.9784
vn 0.9733 0.2293 0.0092
vn 0.3113 -0.1553 -0.9375
vn -1.0000 0.0000 0.0000
vn 0.9869 0.1613 0.0043
vn 0.4788 0.0388 -0.8771
vn 0.1419 -0.1201 0.9826
vn -0.9953 -0.0968 -0.0099
vn 0.0262 -0.0174 0.9995
vn 0.9863 -0.1531 -0.0617
vn 0.7979 0.6025 0.0183
vn 0.9977 -0.0629 -0.0254
vn -0.0444 0.0993 -0.9941
vn -0.9994 0.0172 -0.0311
vn 0.2026 0.0901 -0.9751
vn 0.2956 0.3100 0.9036
vn -0.0503 0.0107 0.9987
vn -0.0853 -0.0350 -0.9957
vn -0.9907 -0.1105 0.0795
vn 0.0389 -0.0830 0.9958
vn 0.9886 -0.1332 -0.0705
vn -0.2106 -0.0142 -0.9775
vn 0.9897 -0.0060 -0.1429
vn -0.9940 -0.1093 -0.0036
vn -0.0335 0.3719 -0.9277
vn -0.9984 -0.0088 -0.0560
vn -0.9791 0.2019 -0.0245
vn 0.0816 0.9488 0.3050
vn 0.1372 0.7043 0.6965
vn -0.9102 -0.4142 0.0000
vn 0.0517 0.9987 0.0000
vn 0.1365 0.7000 -0.7010
vn 0.1415 0.6197 -0.7720
vn 0.1928 0.9502 0.2451
vn 0.1226 0.9789 0.1635
vn -0.1436 -0.9896 0.0000
vn 0.3323 0.5570 0.7611
vn 0.0980 0.9677 0.2323
vn 0.1544 0.9347 0.3202
vn 0.3996 -0.0056 0.9167
vn -0.0723 -0.8484 -0.5245
vn 0.3712 0.9211 0.1176
vn 0.3151 -0.8756 -0.3661
vn 0.4060 0.1019 -0.9082
vn 0.9974 0.0286 -0.0658
vn 0.0089 -0.9998 -0.0196
vn -0.9287 -0.1076 0.3549
vn -0.0433 -0.0489 -0.9979
vn 0.9945 0.0549 -0.0891
vn 0.3383 -0.0636 0.9389
vn -0.0006 -0.9984 -0.0574
vn 0.0097 0.9983 0.0569
vn 0.9749 0.1278 0.1821
vn 0.7254 -0.0985 -0.6812
vn 0.0169 -0.9998 -0.0121
vn 0.2713 -0.9607 -0.0592
vn 0.2665 0.9638 -0.0095
vn 0.9712 -0.1877 -0.1471
vn 0.2795 -0.0335 0.9596
vn 0.6715 -0.7410 0.0016
vn -0.9984 -0.0402 -0.0401
vn -0.0726 -0.0194 0.9972
vn -0.2159 0.0591 -0.9746
vn 0.0000 0.0000 1.0000
vn -0.9869 0.1335 -0.0905
vn -0.4995 -0.0972 0.8609
vn 0.0094 0.1023 0.9947
vn -0.2644 0.4259 -0.8653
vn -0.9986 -0.0027 -0.0534
vn -0.2778 -0.0517 -0.9592
vn -0.1995 -0.0534 0.9784
vn -0.9733 0.2293 0.0092
vn -0.3113 -0.1553 -0.9375
vn -0.9869 0.1613 0.0043
vn -0.4788 0.0388 -0.8771
vn -0.1419 -0.1201 0.9826
vn 0.9953 -0.0968 -0.0099
vn -0.0262 -0.0174 0.9995
vn -0.9863 -0.1531 -0.0617
vn -0.7979 0.6025 0.0183
vn -0.9977 -0.0629 -0.0254
vn 0.0444 0.0993 -0.9941
vn 0.9994 0.0172 -0.0311
vn -0.2026 0.0901 -0.9751
vn -0.2956 0.3100 0.9036
vn 0.0503 0.0107 0.9987
vn 0.0853 -0.0350 -0.9957
vn 0.9907 -0.1105 0.0795
vn -0.0389 -0.0830 0.9958
vn -0.9886 -0.1332 -0.0705
vn 0.2106 -0.0142 -0.9775
vn -0.9897 -0.0060 -0.1429
vn 0.9940 -0.1093 -0.0036
vn 0.0335 0.3719 -0.9277
vn 0.9984 -0.0088 -0.0560
vn 0.9791 0.2019 -0.0245
vn -0.0816 0.9488 0.3050
vn -0.1372 0.7043 0.6965
vn 0.9102 -0.4142 0.0000
vn -0.0517 0.9987 0.0000
vn -0.1365 0.7000 -0.7010
vn -0.1415 0.6197 -0.7720
vn -0.1928 0.9502 0.2451
vn -0.1226 0.9789 0.1635
vn 0.1436 -0.9896 0.0000
vn -0.3323 0.5570 0.7611
vn -0.0980 0.9677 0.2323
vn -0.1544 0.9347 0.3202
vn -0.3996 -0.0056 0.9167
vn 0.0723 -0.8484 -0.5245
vn -0.3712 0.9211 0.1176
vn -0.3151 -0.8756 -0.3661
vn -0.4060 0.1019 -0.9082
vn -0.9974 0.0286 -0.0658
vn -0.0089 -0.9998 -0.0196
vn 0.9287 -0.1076 0.3549
vn 0.0433 -0.0489 -0.9979
vn -0.9945 0.0549 -0.0891
vn -0.3383 -0.0636 0.9389
vn 0.0006 -0.9984 -0.0574
vn -0.0097 0.9983 0.0569
vn -0.9749 0.1278 0.1821
vn -0.7254 -0.0985 -0.6812
vn -0.0169 -0.9998 -0.0121
vn -0.2713 -0.9607 -0.0592
vn -0.2665 0.9638 -0.0095
vn -0.9712 -0.1877 -0.1471
vn -0.2795 -0.0335 0.9596
vn -0.6715 -0.7410 0.0016
vn 0.9984 -0.0402 -0.0401
vn 0.0726 -0.0194 0.9972
vn 0.2159 0.0591 -0.9746
usemtl Material
s off
f 37/1/1 25/2/1 30/3/1 29/4/1
f 4/5/2 3/6/2 7/7/2 8/8/2
f 10/9/3 12/10/3 16/11/3 13/12/3
f 6/13/4 2/14/4 9/15/4 11/16/4
f 2/14/5 1/17/5 3/6/5 4/5/5
f 6/13/6 5/18/6 1/17/6 2/14/6
f 4/5/7 8/8/7 12/10/7 10/9/7
f 2/14/8 4/5/8 10/9/8 9/15/8
f 15/19/9 14/20/9 18/21/9 19/22/9
f 12/23/10 11/24/10 15/25/10 16/26/10
f 9/15/11 10/9/11 13/12/11 14/20/11
f 11/16/12 9/15/12 14/20/12 15/19/12
f 17/27/13 20/28/13 21/29/13 22/30/13
f 16/26/14 15/25/14 19/31/14 20/32/14
f 13/12/15 16/11/15 20/28/15 17/27/15
f 14/20/16 13/12/16 17/27/16 18/21/16
f 23/33/17 22/30/17 38/34/17 40/35/17
f 18/21/18 17/27/18 22/30/18 23/33/18
f 19/22/19 18/21/19 23/33/19 24/36/19
f 20/32/20 19/31/20 24/37/20 21/38/20
f 1/17/21 5/18/21 26/39/21 37/1/21
f 7/7/22 3/6/22 25/2/22 36/40/22
f 30/3/23 28/41/23 32/42/23 34/43/23
f 1/17/24 37/1/24 29/4/24 27/44/24
f 3/6/25 1/17/25 27/44/25 28/41/25
f 25/2/26 3/6/26 28/41/26 30/3/26
f 33/45/27 34/43/27 80/46/27 79/47/27
f 27/44/28 29/4/28 33/45/28 31/48/28
f 29/4/29 30/3/29 34/43/29 33/45/29
f 28/41/30 27/44/30 31/48/30 32/42/30
f 24/36/31 23/33/31 40/35/31 60/49/31
f 35/50/32 60/51/32 62/52/32 63/53/32
f 21/38/33 24/37/33 60/51/33 35/50/33
f 22/30/34 21/29/34 35/54/34 38/34/34
f 36/55/35 41/56/35 46/57/35 43/58/35
f 39/59/36 37/1/36 41/56/36
f 36/55/37 39/59/37 41/56/37
f 44/60/38 45/61/38 48/62/38
f 37/1/39 42/63/39 45/61/39 44/60/39
f 41/56/40 37/1/40 44/60/40 46/57/40
f 44/60/41 48/62/41 52/64/41 51/65/41
f 43/58/42 46/57/42 47/66/42
f 50/67/43 49/68/43 53/69/43 54/70/43
f 46/57/44 44/60/44 51/65/44 49/68/44
f 47/66/45 46/57/45 49/68/45 50/67/45
f 54/70/46 53/69/46 57/71/46 76/72/46
f 51/65/47 52/64/47 56/73/47 55/74/47
f 49/68/48 51/65/48 55/74/48 53/69/48
f 58/75/49 59/76/49 71/77/49
f 55/74/50 56/73/50 59/76/50 58/75/50
f 53/69/51 55/74/51 58/75/51 57/71/51
f 62/78/52 61/79/52 64/80/52 63/81/52
f 35/50/53 63/53/53 67/82/53 65/83/53
f 60/49/54 40/35/54 61/79/54 62/84/54
f 40/35/55 38/34/55 64/80/55 61/79/55
f 66/85/56 65/86/56 67/87/56 68/88/56
f 63/81/57 64/80/57 68/88/57 67/89/57
f 38/34/58 35/54/58 65/86/58 66/85/58
f 64/80/59 38/34/59 66/85/59 68/88/59
f 58/75/60 71/77/60 75/90/60 74/91/60
f 57/71/61 58/75/61 69/92/61
f 76/72/62 57/71/62 69/92/62 70/93/62
f 74/91/63 75/90/63 73/94/63 72/95/63
f 69/92/64 58/75/64 74/91/64 72/95/64
f 70/93/65 69/92/65 72/95/65 73/94/65
f 71/77/10 59/76/10 73/94/10 75/90/10
f 78/96/66 77/97/66 79/47/66 80/46/66
f 32/42/67 31/48/67 77/97/67 78/96/67
f 34/43/68 32/42/68 78/96/68 80/46/68
f 31/48/69 33/45/69 79/47/69 77/97/69
f 70/93/70 73/94/70 82/98/70 83/99/70
f 110/100/71 103/101/71 104/102/71 100/103/71
f 87/104/72 8/8/72 7/7/72 86/105/72
f 89/106/73 90/107/73 16/11/73 12/10/73
f 6/13/74 11/16/74 88/108/74 85/109/74
f 85/109/75 87/104/75 86/105/75 84/110/75
f 6/13/76 85/109/76 84/110/76 5/18/76
f 87/104/77 89/106/77 12/10/77 8/8/77
f 85/109/78 88/108/78 89/106/78 87/104/78
f 15/19/79 94/111/79 93/112/79 91/113/79
f 88/108/80 91/113/80 90/107/80 89/106/80
f 11/16/81 15/19/81 91/113/81 88/108/81
f 92/114/82 97/115/82 96/116/82 95/117/82
f 16/26/83 95/118/83 94/119/83 15/25/83
f 90/107/84 92/114/84 95/117/84 16/11/84
f 91/113/85 93/112/85 92/114/85 90/107/85
f 98/120/86 113/121/86 111/122/86 97/115/86
f 93/112/87 98/120/87 97/115/87 92/114/87
f 94/111/88 99/123/88 98/120/88 93/112/88
f 95/118/89 96/124/89 99/125/89 94/119/89
f 84/110/90 110/100/90 26/39/90 5/18/90
f 7/7/91 36/40/91 100/103/91 86/105/91
f 104/102/92 108/126/92 106/127/92 102/128/92
f 84/110/93 101/129/93 103/101/93 110/100/93
f 86/105/94 102/128/94 101/129/94 84/110/94
f 100/103/95 104/102/95 102/128/95 86/105/95
f 107/130/96 137/131/96 138/132/96 108/126/96
f 101/129/97 105/133/97 107/130/97 103/101/97
f 103/101/98 107/130/98 108/126/98 104/102/98
f 102/128/99 106/127/99 105/133/99 101/129/99
f 99/123/100 123/134/100 113/121/100 98/120/100
f 109/135/101 126/136/101 125/137/101 123/138/101
f 96/124/102 109/135/102 123/138/102 99/125/102
f 97/115/103 111/122/103 109/139/103 96/116/103
f 36/55/104 43/58/104 116/140/104 114/141/104
f 112/142/105 114/141/105 110/100/105
f 36/55/106 114/141/106 112/142/106
f 115/143/107 48/62/107 45/61/107
f 110/100/108 115/143/108 45/61/108 42/63/108
f 114/141/109 116/140/109 115/143/109 110/100/109
f 115/143/110 118/144/110 52/64/110 48/62/110
f 43/58/111 47/66/111 116/140/111
f 50/67/112 54/70/112 119/145/112 117/146/112
f 116/140/113 117/146/113 118/144/113 115/143/113
f 47/66/114 50/67/114 117/146/114 116/140/114
f 54/70/115 76/72/115 121/147/115 119/145/115
f 118/144/116 120/148/116 56/73/116 52/64/116
f 117/146/117 119/145/117 120/148/117 118/144/117
f 122/149/118 71/77/118 59/76/118
f 120/148/119 122/149/119 59/76/119 56/73/119
f 119/145/120 121/147/120 122/149/120 120/148/120
f 125/150/121 126/151/121 127/152/121 124/153/121
f 109/135/122 128/154/122 130/155/122 126/136/122
f 123/134/123 125/156/123 124/153/123 113/121/123
f 113/121/124 124/153/124 127/152/124 111/122/124
f 129/157/125 131/158/125 130/159/125 128/160/125
f 126/151/126 130/161/126 131/158/126 127/152/126
f 111/122/127 129/157/127 128/160/127 109/139/127
f 127/152/128 131/158/128 129/157/128 111/122/128
f 122/149/129 134/162/129 75/90/129 71/77/129
f 121/147/130 132/163/130 122/149/130
f 76/72/131 70/93/131 132/163/131 121/147/131
f 134/162/132 133/164/132 73/94/132 75/90/132
f 132/163/133 133/164/133 134/162/133 122/149/133
f 70/93/134 73/94/134 133/164/134 132/163/134
f 136/165/135 138/132/135 137/131/135 135/166/135
f 106/127/136 136/165/136 135/166/136 105/133/136
f 108/126/137 138/132/137 136/165/137 106/127/137
f 105/133/138 135/166/138 137/131/138 107/130/138
