# Blender v3.0.1 OBJ File: 'Roof.blend'
# www.blender.org
mtllib Roof.mtl
o Plane
v -10.362656 0.000000 5.135765
v -10.362656 0.000000 -5.135765
v 0.000000 0.000000 -5.135765
v -3.141293 0.000000 -5.135765
v -3.141293 0.000000 5.135765
v -10.362656 0.000000 3.018732
v 0.000000 0.000000 3.018732
v -3.141293 0.000000 3.018732
v 10.362656 0.000000 5.135765
v 10.362656 0.000000 -5.135765
v 3.141293 0.000000 -5.135765
v 3.141293 0.000000 5.135765
v 10.362656 0.000000 3.018732
v 3.141293 0.000000 3.018732
v 0.000000 0.000000 -1.058516
v -3.141293 0.000000 -1.058516
v -10.362656 0.000000 -1.058517
v 3.141293 0.000000 -1.058516
v 10.362656 0.000000 -1.058517
v -12.557515 0.000000 -5.135765
v -12.557515 0.000000 -1.058517
v -8.863413 0.013172 -3.790740
v -8.863413 0.013172 -4.353776
v -8.863413 0.969548 -4.353776
v -10.362656 2.778638 -5.135765
v -10.362656 2.778638 -1.058517
v -8.863413 0.969548 -3.790740
v -12.557515 2.778638 -5.135765
v -12.557515 2.778638 -1.058517
v 8.908588 0.003747 -3.695659
v 8.877122 0.027832 -2.830528
v 8.034213 0.027832 -2.830528
v 8.002746 0.003747 -3.695659
v 8.908588 0.610147 -3.695659
v 8.877122 0.586062 -2.830528
v 8.034213 0.586062 -2.830528
v 8.002746 0.610147 -3.695659
v 8.930143 -0.001219 1.569947
v 7.978367 -0.001219 1.575912
v 8.015068 0.026462 2.388076
v 8.888755 0.026462 2.388076
v 8.930143 0.629617 1.569947
v 7.978367 0.629617 1.575912
v 8.015068 0.601936 2.388076
v 8.888755 0.601936 2.388076
v -8.838231 0.000000 -1.058517
v -8.838231 0.000000 -5.135765
v -8.838231 2.778638 -5.135765
v -8.838231 2.778638 -1.058517
v -8.911493 0.013172 -4.353776
v -8.911493 0.013172 -3.790740
v -8.911493 0.969548 -4.353776
v -8.911493 0.969548 -3.790740
v -12.491624 0.051618 -4.688149
v -12.491624 0.051618 -3.535330
v -12.491624 2.009808 -4.688149
v -12.491624 2.009808 -3.535330
v -8.936676 0.051618 -1.123350
v -8.936676 2.009808 -1.123350
v -12.491624 0.051618 -1.123350
v -12.491624 2.009808 -1.123350
v -8.936676 0.051618 -5.084278
v -8.936676 2.009808 -5.084278
v -12.491624 0.051618 -5.084278
v -12.491624 2.009808 -5.084278
v -8.936676 2.719027 -4.688149
v -8.936676 2.719027 -3.535330
v -12.491624 2.719027 -4.688149
v -12.491624 2.719027 -3.535330
v -12.491624 2.719027 -1.123350
v -8.936676 2.719027 -1.123350
v -8.936676 2.719027 -5.084278
v -12.491624 2.719027 -5.084278
v -10.775697 0.051618 -3.535330
v -10.775697 0.051618 -4.688149
v -10.775697 0.051618 -1.123350
v -10.775697 2.009808 -1.123350
v -10.775697 0.051618 -5.084278
v -10.775697 2.009808 -5.084278
v -10.775697 2.719027 -3.535330
v -10.775697 2.719027 -4.688149
v -10.775697 2.719027 -1.123350
v -10.775697 2.719027 -5.084278
v -10.670679 2.009808 -1.123350
v -10.670679 2.719027 -3.535330
v -10.670679 2.719027 -1.123350
v -10.670679 0.051618 -3.535330
v -10.670679 0.051618 -4.688149
v -10.670679 0.051618 -1.123350
v -10.670679 0.051618 -5.084278
v -10.670679 2.009808 -5.084278
v -10.670679 2.719027 -4.688149
v -10.670679 2.719027 -5.084278
v -12.557515 1.389319 -1.058517
v -12.557515 1.389319 -5.135765
v -8.838231 1.389319 -1.058517
v -10.362656 1.389319 -1.058517
v -8.838231 1.389319 -5.135765
v -10.362656 1.389319 -5.135765
v -8.863413 0.491360 -3.790740
v -8.863413 0.491360 -4.353776
v -8.911493 0.491360 -3.790740
v -8.911493 0.491360 -4.353776
v -12.491624 1.030713 -3.535330
v -12.491624 1.030713 -4.688149
v -8.936676 1.030713 -1.123350
v -12.491624 1.030713 -1.123350
v -8.936676 1.030713 -5.084278
v -12.491624 1.030713 -5.084278
v -10.775697 0.598504 -5.084278
v -10.775697 0.598504 -1.123350
v -10.670679 0.598504 -1.123350
v -10.670679 0.598504 -5.084278
v -10.670679 0.595946 -3.535330
v -10.775697 0.595946 -3.535330
v -10.775697 0.597949 -4.688149
v -10.670679 0.597949 -4.688149
v 8.908588 0.003747 -2.830528
v 8.002746 0.003747 -2.830528
v 8.908588 0.610147 -2.830528
v 8.002746 0.610147 -2.830528
v 8.877122 0.027832 -2.970186
v 8.034213 0.027832 -2.970186
v 8.877122 0.586062 -2.970186
v 8.034213 0.586062 -2.970186
v 8.877122 0.027832 -3.670842
v 8.034213 0.027832 -3.670842
v 8.877122 0.586062 -3.670842
v 8.034213 0.586062 -3.670842
v 8.877122 -0.991563 -2.970186
v 8.034213 -0.991563 -2.970186
v 8.877122 -0.991563 -3.670842
v 8.034213 -0.991563 -3.670842
v 8.877122 -1.349458 -2.970186
v 8.034213 -1.349458 -2.970186
v 8.877122 -1.349458 -3.670842
v 8.034213 -1.349458 -3.670842
v 7.978367 -0.001219 2.388076
v 8.925455 -0.001219 2.388076
v 7.978367 0.629617 2.388076
v 8.925455 0.629617 2.388076
v 8.015068 0.026462 2.264391
v 8.888755 0.026462 2.264391
v 8.015068 0.601936 2.264391
v 8.888755 0.601936 2.264391
v 8.015068 0.026462 1.604738
v 8.888755 0.026462 1.604738
v 8.015068 0.601936 1.604738
v 8.888755 0.601936 1.604738
v 8.015068 -1.049570 2.264391
v 8.888755 -1.049570 2.264391
v 8.015068 -1.049570 1.604738
v 8.888755 -1.049570 1.604738
v 8.015068 -1.415385 2.264391
v 8.888755 -1.415385 2.264391
v 8.015068 -1.415385 1.604738
v 8.888755 -1.415385 1.604738
v -10.775697 -0.217826 -3.535330
v -12.491624 -0.217826 -3.535330
v -10.775697 -2.418502 -1.123350
v -12.491624 -2.418502 -1.123350
v -12.491624 0.021138 -3.535330
v -10.775697 0.021138 -3.535330
v -12.491624 -0.227811 -1.123350
v -10.775697 -0.227811 -1.123350
v -10.775697 -4.580826 1.580628
v -12.491624 -4.580826 1.580628
v -12.491624 -0.227811 1.580628
v -10.775697 -0.227811 1.580628
vt 0.348432 0.603053
vt 0.500000 0.603053
vt 0.500000 1.000000
vt 0.348432 1.000000
vt 0.000000 0.603053
vt 0.073554 0.603053
vt 0.073554 0.603053
vt 0.000000 0.603053
vt 0.000000 0.000000
vt 0.348432 0.000000
vt 0.348432 0.206107
vt 0.000000 0.206107
vt 0.348432 0.603053
vt 0.348432 1.000000
vt 0.000000 0.603053
vt 0.000000 1.000000
vt 0.056948 0.889143
vt 0.056948 0.754001
vt 0.127077 0.754001
vt 0.000000 0.000000
vt 0.000000 0.206107
vt 0.348432 0.206107
vt 0.348432 0.000000
vt 0.048280 0.250000
vt 0.122349 0.250000
vt 0.500000 0.206107
vt 0.073554 0.603053
vt 0.000000 0.603053
vt 0.000000 0.000000
vt 0.000000 0.000000
vt 0.000000 0.000000
vt 0.000000 0.000000
vt 0.073554 1.000000
vt 0.000000 1.000000
vt 0.073554 1.000000
vt 0.000000 1.000000
vt 0.000000 0.603053
vt 0.073554 0.972018
vt 0.073554 0.972018
vt 0.073554 0.972018
vt 0.073554 0.972018
vt 0.000000 0.000000
vt 0.000000 0.000000
vt 0.000000 0.000000
vt 0.000000 0.000000
vt 0.000000 0.000000
vt 0.000000 0.000000
vt 0.127077 0.889143
vt 0.127077 0.754001
vt 0.056948 0.754001
vt 0.056948 0.889143
vt 0.127077 0.889143
vt 0.059384 0.754001
vt 0.124641 0.754001
vt 0.124641 0.754001
vt 0.059384 0.754001
vt 0.051432 0.370833
vt 0.122349 0.370833
vt 0.122349 0.250000
vt 0.048280 0.250000
vt 0.122349 0.370833
vt 0.051432 0.370833
vt 0.051151 0.250000
vt 0.051151 0.250000
vt 0.051151 0.250000
vt 0.051151 0.250000
vt 0.073554 0.972018
vt 0.073554 0.631036
vt 0.073554 0.631036
vt 0.073554 0.631036
vt 0.073554 1.000000
vt 0.073554 0.631036
vt 0.073554 0.631036
vt 0.073554 0.631036
vt 0.073554 0.631036
vt 0.073554 0.631036
vt 0.073554 0.972018
vt 0.073554 0.631036
vt 0.073554 0.972018
vt 0.073554 0.972018
vt 0.073554 0.631036
vt 0.073554 0.631036
vt 0.073554 0.972018
vt 0.073554 0.972018
vt 0.073554 0.631036
vt 0.073554 0.972018
vt 0.073554 0.972018
vt 0.073554 0.972018
vt 0.073554 0.972018
vt 0.073554 0.631036
vt 0.073554 0.631036
vt 0.073554 0.631036
vt 0.073554 0.631036
vt 0.073554 0.631036
vt 0.073554 0.631036
vt 0.073554 0.631036
vt 0.073554 0.631036
vt 0.073554 0.631036
vt 0.073554 0.631036
vt 0.073554 0.631036
vt 0.073554 0.972018
vt 0.073554 0.972018
vt 0.073554 0.972018
vt 0.073554 0.972018
vt 0.073554 0.972018
vt 0.073554 0.972018
vt 0.073554 0.972018
vt 0.073554 0.972018
vt 0.073554 0.972018
vt 0.073554 0.972018
vt 0.073554 0.972018
vt 0.073554 0.972018
vt 0.073554 0.631036
vt 0.073554 0.631036
vt 0.073554 0.631036
vt 0.073554 0.631036
vt 0.073554 0.631036
vt 0.073554 0.972018
vt 0.073554 0.972018
vt 0.073554 0.631036
vt 0.073554 0.631036
vt 0.073554 0.631036
vt 0.073554 0.631036
vt 0.073554 0.972018
vt 0.073554 0.972018
vt 0.073554 0.972018
vt 0.073554 0.631036
vt 0.073554 0.631036
vt 0.073554 0.631036
vt 0.073554 0.631036
vt 0.073554 0.972018
vt 0.000000 0.000000
vt 0.000000 0.000000
vt 0.000000 0.000000
vt 0.000000 0.000000
vt 0.000000 0.000000
vt 0.073554 0.631036
vt 0.073554 0.972018
vt 0.059384 0.754001
vt 0.124641 0.754001
vt 0.059384 0.754001
vt 0.059384 0.754001
vt 0.059384 0.754001
vt 0.124641 0.754001
vt 0.124641 0.754001
vt 0.124641 0.754001
vt 0.059384 0.754001
vt 0.059384 0.754001
vt 0.059384 0.754001
vt 0.059384 0.754001
vt 0.124641 0.754001
vt 0.124641 0.754001
vt 0.124641 0.754001
vt 0.124641 0.754001
vt 0.119479 0.250000
vt 0.119479 0.250000
vt 0.119479 0.250000
vt 0.051151 0.250000
vt 0.119479 0.250000
vt 0.119479 0.250000
vt 0.119479 0.250000
vt 0.051151 0.250000
vt 0.051151 0.250000
vt 0.119479 0.250000
vt 0.051151 0.250000
vt 0.051151 0.250000
vt 0.051151 0.250000
vt 0.119479 0.250000
vt 0.119479 0.250000
vt 0.119479 0.250000
vt 0.073554 0.631036
vt 0.073554 0.631036
vt 0.073554 0.631036
vt 0.073554 0.631036
vt 0.073554 0.631036
vt 0.073554 0.631036
vt 0.073554 0.631036
vt 0.073554 0.631036
vn 0.0000 1.0000 0.0000
vn -0.0000 0.0000 1.0000
vn 0.0009 1.0000 0.0014
vn 0.0000 1.0000 -0.0019
vn -1.0000 0.0000 0.0000
vn 0.0000 0.0000 -1.0000
vn -0.0005 1.0000 -0.0009
vn 0.0000 -1.0000 0.0000
vn 1.0000 0.0000 0.0000
vn 0.0000 1.0000 0.0002
vn -0.0063 0.0000 -1.0000
vn 1.0000 0.0000 0.0057
vn 0.4635 0.8861 0.0000
vn 0.9999 -0.0139 0.0000
vn 1.0000 0.0000 -0.0092
vn 0.9995 0.0000 0.0322
vn -1.0000 0.0000 -0.0094
vn -0.9999 -0.0082 0.0147
vn -0.9994 0.0000 0.0345
vn 0.0078 0.9994 0.0339
vn -0.9999 -0.0144 0.0000
vn -0.9999 -0.0099 -0.0029
vn 0.0218 0.9998 0.0000
vn 0.0105 0.9999 -0.0075
vn 0.0000 1.0000 -0.0011
vn 0.0000 1.0000 0.0014
vn 0.0000 0.7387 0.6740
vn 0.0000 0.7810 0.6245
usemtl Material.001
s off
f 16/1/1 15/2/1 3/3/1 4/4/1
f 97/5/2 96/6/2 49/7/2 26/8/2
f 1/9/1 5/10/1 8/11/1 6/12/1
f 18/13/1 11/14/1 3/3/1 15/2/1
f 19/15/3 10/16/3 30/17/3 118/18/3 119/19/3 18/13/3
f 9/20/1 13/21/1 14/22/1 12/23/1
f 13/21/4 139/24/4 138/25/4 14/22/4
f 14/22/1 18/13/1 15/2/1 7/26/1
f 6/12/1 8/11/1 16/1/1 46/27/1 17/28/1
f 8/11/1 7/26/1 15/2/1 16/1/1
f 95/29/5 94/30/5 29/31/5 28/32/5
f 26/8/1 49/7/1 48/33/1 25/34/1
f 47/35/1 46/27/1 16/1/1 4/4/1
f 26/8/1 25/34/1 28/36/1 29/37/1
f 101/38/2 24/39/2 52/40/2 103/41/2
f 94/30/2 97/42/2 26/43/2 29/31/2
f 98/44/6 99/45/6 25/46/6 48/47/6
f 99/45/6 95/29/6 28/32/6 25/46/6
f 37/48/1 121/49/1 120/50/1 34/51/1
f 18/13/7 119/19/7 33/52/7 30/17/7 10/16/7 11/14/7
f 30/17/6 33/52/6 37/48/6 34/51/6
f 35/53/8 36/54/8 125/55/8 124/56/8
f 33/52/5 119/19/5 121/49/5 37/48/5
f 118/18/9 30/17/9 34/51/9 120/50/9
f 42/57/1 43/58/1 140/59/1 141/60/1
f 14/22/10 138/25/10 39/61/10 38/62/10 139/24/10 13/21/10 19/15/10 18/13/10
f 41/63/5 45/64/5 145/65/5 143/66/5
f 38/62/11 39/61/11 43/58/11 42/57/11
f 139/24/12 38/62/12 42/57/12 141/60/12
f 39/61/5 138/25/5 140/59/5 43/58/5
f 23/67/13 22/68/13 46/27/13 47/35/13
f 27/69/14 24/39/14 48/33/14 49/7/14
f 100/70/15 27/69/15 49/7/15 96/6/15
f 101/38/16 23/67/16 47/35/16 98/71/16
f 102/72/17 51/73/17 58/74/17 106/75/17
f 24/39/8 27/69/8 53/76/8 52/40/8
f 100/70/6 22/68/6 51/73/6 102/72/6
f 22/68/1 23/67/1 50/77/1 51/73/1
f 104/78/9 105/79/9 56/80/9 57/81/9
f 74/82/1 75/83/1 54/84/1 55/85/1
f 63/86/18 52/40/18 66/87/18 72/88/18
f 57/81/9 56/80/9 68/89/9 69/90/9
f 111/91/6 76/92/6 60/93/6 107/94/6
f 61/95/9 57/81/9 69/90/9 70/96/9
f 163/97/2 162/98/2 159/99/2 158/100/2
f 104/78/9 57/81/9 61/95/9 107/94/9
f 110/101/2 79/102/2 65/103/2 109/104/2
f 105/79/9 54/84/9 64/105/9 109/104/9
f 103/41/19 52/40/19 63/86/19 108/106/19
f 88/107/20 50/77/20 62/108/20 90/109/20
f 81/110/8 68/89/8 73/111/8 83/112/8
f 81/110/8 80/113/8 69/90/8 68/89/8
f 85/114/8 67/115/8 71/116/8 86/117/8
f 91/118/2 63/86/2 72/88/2 93/119/2
f 52/40/21 53/76/21 67/115/21 66/87/21
f 53/76/22 59/120/22 71/116/22 67/115/22
f 77/121/6 61/95/6 70/96/6 82/122/6
f 56/80/9 65/103/9 73/111/9 68/89/9
f 84/123/6 77/121/6 82/122/6 86/117/6
f 65/103/2 79/102/2 83/112/2 73/111/2
f 69/90/8 80/113/8 82/122/8 70/96/8
f 92/124/8 85/114/8 80/113/8 81/110/8
f 92/124/8 81/110/8 83/112/8 93/119/8
f 54/84/1 75/83/1 78/125/1 64/105/1
f 113/126/2 91/118/2 79/102/2 110/101/2
f 89/127/9 87/128/9 114/129/9 112/130/9
f 112/130/6 89/127/6 76/92/6 111/91/6
f 87/128/1 88/107/1 75/83/1 74/82/1
f 51/73/23 50/77/23 88/107/23 87/128/23
f 106/75/6 58/74/6 89/127/6 112/130/6
f 51/73/24 87/128/24 89/127/24 58/74/24
f 108/106/2 63/86/2 91/118/2 113/126/2
f 66/87/8 92/124/8 93/119/8 72/88/8
f 66/87/8 67/115/8 85/114/8 92/124/8
f 59/120/6 84/123/6 86/117/6 71/116/6
f 79/102/2 91/118/2 93/119/2 83/112/2
f 80/113/8 85/114/8 86/117/8 82/122/8
f 88/107/9 90/109/9 113/126/9 117/131/9
f 62/108/2 108/106/2 113/126/2 90/109/2
f 59/120/6 106/75/6 112/130/6 84/123/6
f 84/123/6 112/130/6 111/91/6 77/121/6
f 90/109/2 113/126/2 110/101/2 78/125/2
f 50/77/19 103/41/19 108/106/19 62/108/19
f 56/80/9 105/79/9 109/104/9 65/103/9
f 78/125/2 110/101/2 109/104/2 64/105/2
f 55/85/9 104/78/9 107/94/9 60/93/9
f 77/121/6 111/91/6 107/94/6 61/95/6
f 55/85/9 54/84/9 105/79/9 104/78/9
f 27/69/6 100/70/6 102/72/6 53/76/6
f 53/76/17 102/72/17 106/75/17 59/120/17
f 24/39/16 101/38/16 98/71/16 48/33/16
f 22/68/15 100/70/15 96/6/15 46/27/15
f 2/132/6 20/133/6 95/29/6 99/45/6
f 47/134/6 2/132/6 99/45/6 98/44/6
f 21/135/2 17/136/2 97/42/2 94/30/2
f 23/67/2 101/38/2 103/41/2 50/77/2
f 20/133/5 21/135/5 94/30/5 95/29/5
f 17/28/2 46/27/2 96/6/2 97/5/2
f 114/129/25 115/137/25 111/91/25 112/130/25
f 74/82/5 76/92/5 111/91/5 115/137/5
f 116/138/26 117/131/26 113/126/26 110/101/26
f 87/128/6 74/82/6 115/137/6 114/129/6
f 78/125/5 75/83/5 116/138/5 110/101/5
f 75/83/2 88/107/2 117/131/2 116/138/2
f 31/139/2 32/140/2 119/19/2 118/18/2
f 36/54/2 35/53/2 120/50/2 121/49/2
f 35/53/2 31/139/2 118/18/2 120/50/2
f 32/140/2 36/54/2 121/49/2 119/19/2
f 122/141/5 124/56/5 128/142/5 126/143/5
f 31/139/5 35/53/5 124/56/5 122/141/5
f 32/140/1 31/139/1 122/141/1 123/144/1
f 36/54/9 32/140/9 123/144/9 125/55/9
f 127/145/2 126/143/2 128/142/2 129/146/2
f 122/141/5 126/143/5 132/147/5 130/148/5
f 125/55/9 123/144/9 127/145/9 129/146/9
f 124/56/8 125/55/8 129/146/8 128/142/8
f 130/148/5 132/147/5 136/149/5 134/150/5
f 123/144/6 122/141/6 130/148/6 131/151/6
f 127/145/9 123/144/9 131/151/9 133/152/9
f 126/143/2 127/145/2 133/152/2 132/147/2
f 135/153/1 134/150/1 136/149/1 137/154/1
f 131/151/6 130/148/6 134/150/6 135/153/6
f 133/152/9 131/151/9 135/153/9 137/154/9
f 132/147/2 133/152/2 137/154/2 136/149/2
f 41/63/2 40/155/2 138/25/2 139/24/2
f 44/156/2 45/64/2 141/60/2 140/59/2
f 45/64/2 41/63/2 139/24/2 141/60/2
f 40/155/2 44/156/2 140/59/2 138/25/2
f 142/157/6 143/66/6 151/158/6 150/159/6
f 40/155/1 41/63/1 143/66/1 142/157/1
f 44/156/9 40/155/9 142/157/9 144/160/9
f 45/64/8 44/156/8 144/160/8 145/65/8
f 146/161/2 147/162/2 149/163/2 148/164/2
f 144/160/9 142/157/9 146/161/9 148/164/9
f 145/65/8 144/160/8 148/164/8 149/163/8
f 143/66/5 145/65/5 149/163/5 147/162/5
f 151/158/5 153/165/5 157/166/5 155/167/5
f 143/66/5 147/162/5 153/165/5 151/158/5
f 147/162/2 146/161/2 152/168/2 153/165/2
f 146/161/9 142/157/9 150/159/9 152/168/9
f 154/169/1 155/167/1 157/166/1 156/170/1
f 150/159/6 151/158/6 155/167/6 154/169/6
f 152/168/9 150/159/9 154/169/9 156/170/9
f 153/165/2 152/168/2 156/170/2 157/166/2
f 158/100/27 159/99/27 161/171/27 160/172/27
f 162/98/9 164/173/9 161/171/9 159/99/9
f 165/174/5 163/97/5 158/100/5 160/172/5
f 160/172/28 161/171/28 167/175/28 166/176/28
f 60/93/6 76/92/6 165/174/6 164/173/6
f 76/92/5 74/82/5 163/97/5 165/174/5
f 55/85/9 60/93/9 164/173/9 162/98/9
f 74/82/2 55/85/2 162/98/2 163/97/2
f 168/177/6 169/178/6 166/176/6 167/175/6
f 164/173/8 165/174/8 169/178/8 168/177/8
f 161/171/9 164/173/9 168/177/9 167/175/9
f 165/174/5 160/172/5 166/176/5 169/178/5
o Plane.001
v -10.362552 0.000000 5.135714
v -10.466282 0.000000 5.187123
v 0.000000 0.000000 -5.135714
v 0.000000 0.000000 -5.187123
v -3.141293 0.000000 -5.135714
v -3.141293 0.000000 -5.187123
v -3.141397 0.000000 5.135714
v -3.037666 0.000000 5.187123
v -10.362552 0.000000 3.018732
v -10.466282 0.000000 3.018732
v 0.000000 0.000000 3.070090
v 0.000000 0.000000 3.018681
v -3.141397 0.000000 3.018681
v -3.037666 0.000000 3.070090
v 10.466282 0.000000 5.187123
v 10.362552 0.000000 5.135714
v 10.466282 0.000000 -5.187123
v 10.362552 0.000000 -5.135714
v 3.141293 0.000000 -5.187123
v 3.141293 0.000000 -5.135714
v 3.037666 0.000000 5.187123
v 3.141397 0.000000 5.135714
v 10.466282 0.000000 3.018732
v 10.362552 0.000000 3.018732
v 3.037666 0.000000 3.070090
v 3.141397 0.000000 3.018681
v -10.362552 0.000000 -1.058517
v -10.466282 0.000000 -1.058517
v 10.466282 0.000000 -1.058517
v 10.362552 0.000000 -1.058517
v -10.466282 1.392902 5.187123
v -10.362552 1.392902 5.135714
v 0.000000 1.392902 -5.187123
v 0.000000 1.392902 -5.135714
v -3.141293 1.392902 -5.187123
v -3.141293 1.392902 -5.135714
v -3.037666 1.392902 5.187123
v -3.141397 1.392902 5.135714
v -10.466282 1.392902 3.018732
v -10.362552 1.392902 3.018732
v 0.000000 1.392902 3.018681
v 0.000000 1.392902 3.070090
v -3.037666 1.392902 3.070090
v -3.141397 1.392902 3.018681
v 10.362552 1.392902 5.135714
v 10.466282 1.392902 5.187123
v 10.362552 1.392902 -5.135714
v 10.466282 1.392902 -5.187123
v 3.141293 1.392902 -5.135714
v 3.141293 1.392902 -5.187123
v 3.141397 1.392902 5.135714
v 3.037666 1.392902 5.187123
v 10.362552 1.392902 3.018732
v 10.466282 1.392902 3.018732
v 3.141397 1.392902 3.018681
v 3.037666 1.392902 3.070090
v 10.362552 1.392902 -1.058517
v 10.466282 1.392902 -1.058517
v -8.838231 0.000000 -5.135714
v -8.838231 0.000000 -5.187123
v -10.362552 1.389319 -1.058517
v -10.466282 1.389319 -1.058517
v -8.838231 1.389319 -5.135714
v -8.838231 1.389319 -5.187123
v -8.890996 0.000000 -5.133886
v -8.890996 1.389319 -5.133886
vt 0.000000 0.206107
vt 0.000000 0.000000
vt 0.000000 0.000000
vt 0.000000 0.206107
vt 0.500000 1.000000
vt 0.348432 1.000000
vt 0.348432 1.000000
vt 0.500000 1.000000
vt 0.348432 0.000000
vt 0.348432 0.000000
vt 0.000000 0.603053
vt 0.000000 0.603053
vt 0.348432 0.206107
vt 0.348432 0.206107
vt 0.500000 0.206107
vt 0.500000 0.206107
vt 0.000000 0.206107
vt 0.000000 0.000000
vt 0.000000 0.000000
vt 0.000000 0.206107
vt 0.348432 1.000000
vt 0.000000 1.000000
vt 0.000000 1.000000
vt 0.348432 1.000000
vt 0.348432 0.000000
vt 0.348432 0.000000
vt 0.000000 0.603053
vt 0.000000 0.603053
vt 0.348432 0.206107
vt 0.348432 0.206107
vt 0.073554 1.000000
vt 0.073554 1.000000
vt 0.000000 0.603053
vt 0.000000 0.603053
vt 0.000000 0.206107
vt 0.000000 0.000000
vt 0.000000 0.000000
vt 0.000000 0.206107
vt 0.500000 1.000000
vt 0.348432 1.000000
vt 0.348432 1.000000
vt 0.500000 1.000000
vt 0.348432 0.000000
vt 0.348432 0.000000
vt 0.348432 0.206107
vt 0.348432 0.206107
vt 0.500000 0.206107
vt 0.500000 0.206107
vt 0.000000 0.206107
vt 0.000000 0.000000
vt 0.000000 0.000000
vt 0.000000 0.206107
vt 0.348432 1.000000
vt 0.000000 1.000000
vt 0.000000 1.000000
vt 0.348432 1.000000
vt 0.348432 0.000000
vt 0.348432 0.000000
vt 0.000000 0.603053
vt 0.000000 0.603053
vt 0.348432 0.206107
vt 0.348432 0.206107
vt 0.073554 1.000000
vt 0.073554 1.000000
vt 0.073554 1.000000
vt 0.073554 1.000000
vn 0.0000 -1.0000 0.0000
vn 0.0000 0.0000 -1.0000
vn 0.0000 1.0000 0.0000
vn -0.7102 0.0000 -0.7040
vn 0.0000 1.0000 -0.0009
vn -0.0006 1.0000 0.0000
vn 0.0000 0.0000 1.0000
vn 1.0000 0.0000 0.0000
vn -1.0000 0.0000 0.0000
vn 0.0346 0.0000 0.9994
usemtl Material.003
s off
f 178/179/29 170/180/29 171/181/29 179/182/29
f 172/183/29 174/184/29 175/185/29 173/186/29
f 170/180/29 176/187/29 177/188/29 171/181/29
f 196/189/29 178/179/29 179/182/29 197/190/29
f 176/187/29 182/191/29 183/192/29 177/188/29
f 180/193/29 183/192/29 182/191/29 181/194/29
f 192/195/29 184/196/29 185/197/29 193/198/29
f 188/199/29 186/200/29 187/201/29 189/202/29
f 173/186/29 188/199/29 189/202/29 172/183/29
f 184/196/29 190/203/29 191/204/29 185/197/29
f 198/205/29 192/195/29 193/198/29 199/206/29
f 190/203/29 194/207/29 195/208/29 191/204/29
f 181/194/29 195/208/29 194/207/29 180/193/29
f 186/200/29 198/205/29 199/206/29 187/201/29
f 174/184/29 228/209/29 229/210/29 175/185/29
f 230/211/30 196/189/30 197/190/30 231/212/30
f 208/213/31 200/214/31 201/215/31 209/216/31
f 202/217/31 204/218/31 205/219/31 203/220/31
f 200/214/31 206/221/31 207/222/31 201/215/31
f 206/221/31 212/223/31 213/224/31 207/222/31
f 210/225/31 213/224/31 212/223/31 211/226/31
f 222/227/31 214/228/31 215/229/31 223/230/31
f 218/231/31 216/232/31 217/233/31 219/234/31
f 203/220/31 218/231/31 219/234/31 202/217/31
f 214/228/31 220/235/31 221/236/31 215/229/31
f 226/237/31 222/227/31 223/230/31 227/238/31
f 220/235/31 224/239/31 225/240/31 221/236/31
f 211/226/31 225/240/31 224/239/31 210/225/31
f 216/232/31 226/237/31 227/238/31 217/233/31
f 233/241/32 229/210/32 234/242/32 235/243/32
f 231/212/33 208/213/33 209/216/33 230/211/33
f 204/218/34 233/241/34 232/244/34 205/219/34
f 205/219/35 174/184/35 172/183/35 203/220/35
f 204/218/30 202/217/30 173/186/30 175/185/30
f 224/239/30 195/208/30 181/194/30 210/225/30
f 225/240/35 211/226/35 180/193/35 194/207/35
f 218/231/35 189/202/35 187/201/35 216/232/35
f 219/234/30 217/233/30 186/200/30 188/199/30
f 207/222/30 176/187/30 170/180/30 201/215/30
f 206/221/35 200/214/35 171/181/35 177/188/35
f 203/220/35 172/183/35 189/202/35 218/231/35
f 202/217/30 219/234/30 188/199/30 173/186/30
f 214/228/30 185/197/30 191/204/30 220/235/30
f 215/229/35 221/236/35 190/203/35 184/196/35
f 209/216/36 178/179/36 196/189/36 230/211/36
f 208/213/37 231/212/37 197/190/37 179/182/37
f 213/224/37 182/191/37 176/187/37 207/222/37
f 212/223/36 206/221/36 177/188/36 183/192/36
f 201/215/36 170/180/36 178/179/36 209/216/36
f 200/214/37 208/213/37 179/182/37 171/181/37
f 226/237/37 199/206/37 193/198/37 222/227/37
f 227/238/36 223/230/36 192/195/36 198/205/36
f 216/232/37 187/201/37 199/206/37 226/237/37
f 217/233/36 227/238/36 198/205/36 186/200/36
f 220/235/36 191/204/36 195/208/36 224/239/36
f 221/236/37 225/240/37 194/207/37 190/203/37
f 210/225/30 181/194/30 182/191/30 213/224/30
f 211/226/35 212/223/35 183/192/35 180/193/35
f 232/244/35 228/209/35 174/184/35 205/219/35
f 233/241/30 204/218/30 175/185/30 229/210/30
f 222/227/37 193/198/37 185/197/37 214/228/37
f 223/230/36 215/229/36 184/196/36 192/195/36
f 232/244/31 233/241/31 235/243/31
f 229/210/29 228/209/29 234/242/29
f 228/209/38 232/244/38 235/243/38 234/242/38
